<?xml version="1.0" encoding="UTF-8"?>
<!DOCTYPE svg PUBLIC "-//W3C//DTD SVG 1.1//EN" "http://www.w3.org/Graphics/SVG/1.1/DTD/svg11.dtd">
<svg xmlns="http://www.w3.org/2000/svg" version="1.1" width="512px" height="512px" style="shape-rendering:geometricPrecision; text-rendering:geometricPrecision; image-rendering:optimizeQuality; fill-rule:evenodd; clip-rule:evenodd" xmlns:xlink="http://www.w3.org/1999/xlink">
<g><path style="opacity:0.998" fill="#fe6d00" d="M 132.5,-0.5 C 214.5,-0.5 296.5,-0.5 378.5,-0.5C 453.831,12.8313 498.165,57.1646 511.5,132.5C 511.5,183.167 511.5,233.833 511.5,284.5C 509.833,283.167 508.167,281.833 506.5,280.5C 502.167,275.5 497.5,270.833 492.5,266.5C 487.833,261.167 482.833,256.167 477.5,251.5C 473.167,246.5 468.5,241.833 463.5,237.5C 458.167,231.5 452.5,225.833 446.5,220.5C 442.167,215.5 437.5,210.833 432.5,206.5C 427.833,201.167 422.833,196.167 417.5,191.5C 412.833,186.167 407.833,181.167 402.5,176.5C 397.167,170.5 391.5,164.833 385.5,159.5C 376.833,150.167 367.833,141.167 358.5,132.5C 324.673,131.167 290.507,130.5 256,130.5C 221.665,130.5 187.498,130.833 153.5,131.5C 153.5,143.167 153.5,154.833 153.5,166.5C 161.5,175.167 169.833,183.5 178.5,191.5C 178.5,240.833 178.5,290.167 178.5,339.5C 170.14,341.039 161.806,342.705 153.5,344.5C 153.5,356.167 153.5,367.833 153.5,379.5C 165.833,392.5 178.5,405.167 191.5,417.5C 200.833,427.5 210.5,437.167 220.5,446.5C 225.5,452.167 230.833,457.5 236.5,462.5C 241.167,467.833 246.167,472.833 251.5,477.5C 255.833,482.5 260.5,487.167 265.5,491.5C 270.167,496.833 275.167,501.833 280.5,506.5C 281.833,508.167 283.167,509.833 284.5,511.5C 233.833,511.5 183.167,511.5 132.5,511.5C 57.6258,498.292 13.2924,454.292 -0.5,379.5C -0.5,296.833 -0.5,214.167 -0.5,131.5C 13.2924,56.7075 57.6258,12.7075 132.5,-0.5 Z"/></g>
<g><path style="opacity:1" fill="#fefefe" d="M 153.5,131.5 C 221.5,131.5 289.5,131.5 357.5,131.5C 357.5,155.833 357.5,180.167 357.5,204.5C 352.167,204.5 346.833,204.5 341.5,204.5C 331.833,204.5 322.167,204.5 312.5,204.5C 312.439,195.306 311.772,186.306 310.5,177.5C 286.833,177.5 263.167,177.5 239.5,177.5C 238.503,196.659 238.17,215.993 238.5,235.5C 266.833,235.5 295.167,235.5 323.5,235.5C 323.5,242.5 323.5,249.5 323.5,256.5C 323.5,264.5 323.5,272.5 323.5,280.5C 295.167,280.5 266.833,280.5 238.5,280.5C 238.167,300.178 238.5,319.845 239.5,339.5C 241.071,340.309 242.738,340.643 244.5,340.5C 251.122,341.958 257.789,343.291 264.5,344.5C 264.5,356.167 264.5,367.833 264.5,379.5C 227.5,379.5 190.5,379.5 153.5,379.5C 153.5,367.833 153.5,356.167 153.5,344.5C 161.806,342.705 170.14,341.039 178.5,339.5C 178.5,290.167 178.5,240.833 178.5,191.5C 178.5,184.833 178.5,178.167 178.5,171.5C 170.075,170.215 161.742,168.548 153.5,166.5C 153.5,154.833 153.5,143.167 153.5,131.5 Z"/></g>
<g><path style="opacity:1" fill="#aa4900" d="M 358.5,132.5 C 367.833,141.167 376.833,150.167 385.5,159.5C 377.222,169.447 368.222,178.78 358.5,187.5C 358.5,169.167 358.5,150.833 358.5,132.5 Z"/></g>
<g><path style="opacity:1" fill="#e5a16f" d="M 153.5,131.5 C 187.498,130.833 221.665,130.5 256,130.5C 290.507,130.5 324.673,131.167 358.5,132.5C 358.5,150.833 358.5,169.167 358.5,187.5C 358.822,193.358 358.489,199.025 357.5,204.5C 357.5,180.167 357.5,155.833 357.5,131.5C 289.5,131.5 221.5,131.5 153.5,131.5 Z"/></g>
<g><path style="opacity:1" fill="#b24c00" d="M 385.5,159.5 C 391.5,164.833 397.167,170.5 402.5,176.5C 376.884,203.783 350.55,230.45 323.5,256.5C 323.5,249.5 323.5,242.5 323.5,235.5C 320.038,234.518 316.371,234.185 312.5,234.5C 322.167,224.5 331.833,214.5 341.5,204.5C 346.833,204.5 352.167,204.5 357.5,204.5C 358.489,199.025 358.822,193.358 358.5,187.5C 368.222,178.78 377.222,169.447 385.5,159.5 Z"/></g>
<g><path style="opacity:1" fill="#893b01" d="M 153.5,166.5 C 161.742,168.548 170.075,170.215 178.5,171.5C 178.5,178.167 178.5,184.833 178.5,191.5C 169.833,183.5 161.5,175.167 153.5,166.5 Z"/></g>
<g><path style="opacity:1" fill="#b84f00" d="M 402.5,176.5 C 407.833,181.167 412.833,186.167 417.5,191.5C 367.201,242.299 316.701,292.965 266,343.5C 265.5,353.161 265.334,362.828 265.5,372.5C 265.802,375.059 265.468,377.393 264.5,379.5C 264.5,367.833 264.5,356.167 264.5,344.5C 257.789,343.291 251.122,341.958 244.5,340.5C 243.737,339.732 242.737,339.232 241.5,339C 260.5,320 279.5,301 298.5,282C 307.01,281.829 315.343,281.329 323.5,280.5C 323.5,272.5 323.5,264.5 323.5,256.5C 350.55,230.45 376.884,203.783 402.5,176.5 Z"/></g>
<g><path style="opacity:1" fill="#9d4300" d="M 239.5,177.5 C 263.167,177.5 286.833,177.5 310.5,177.5C 291.833,196.5 273.167,215.5 254.5,234.5C 249.5,234.5 244.5,234.5 239.5,234.5C 239.5,215.5 239.5,196.5 239.5,177.5 Z"/></g>
<g><path style="opacity:1" fill="#bf5100" d="M 417.5,191.5 C 422.833,196.167 427.833,201.167 432.5,206.5C 376.833,261.833 321.167,317.167 265.5,372.5C 265.334,362.828 265.5,353.161 266,343.5C 316.701,292.965 367.201,242.299 417.5,191.5 Z"/></g>
<g><path style="opacity:1" fill="#a94800" d="M 310.5,177.5 C 311.772,186.306 312.439,195.306 312.5,204.5C 322.167,204.5 331.833,204.5 341.5,204.5C 331.833,214.5 322.167,224.5 312.5,234.5C 293.167,234.5 273.833,234.5 254.5,234.5C 273.167,215.5 291.833,196.5 310.5,177.5 Z"/></g>
<g><path style="opacity:1" fill="#c35300" d="M 432.5,206.5 C 437.5,210.833 442.167,215.5 446.5,220.5C 371.5,296.167 296.167,371.5 220.5,446.5C 210.5,437.167 200.833,427.5 191.5,417.5C 203.965,405.535 216.298,393.369 228.5,381C 240.674,380.831 252.674,380.331 264.5,379.5C 265.468,377.393 265.802,375.059 265.5,372.5C 321.167,317.167 376.833,261.833 432.5,206.5 Z"/></g>
<g><path style="opacity:1" fill="#ca5600" d="M 446.5,220.5 C 452.5,225.833 458.167,231.5 463.5,237.5C 388.368,312.132 313.368,386.965 238.5,462C 237.906,462.464 237.239,462.631 236.5,462.5C 230.833,457.5 225.5,452.167 220.5,446.5C 296.167,371.5 371.5,296.167 446.5,220.5 Z"/></g>
<g><path style="opacity:1" fill="#d8af91" d="M 239.5,177.5 C 239.5,196.5 239.5,215.5 239.5,234.5C 244.5,234.5 249.5,234.5 254.5,234.5C 273.833,234.5 293.167,234.5 312.5,234.5C 316.371,234.185 320.038,234.518 323.5,235.5C 295.167,235.5 266.833,235.5 238.5,235.5C 238.17,215.993 238.503,196.659 239.5,177.5 Z"/></g>
<g><path style="opacity:1" fill="#d15900" d="M 463.5,237.5 C 468.5,241.833 473.167,246.5 477.5,251.5C 402.5,327.167 327.167,402.5 251.5,477.5C 246.167,472.833 241.167,467.833 236.5,462.5C 237.239,462.631 237.906,462.464 238.5,462C 313.368,386.965 388.368,312.132 463.5,237.5 Z"/></g>
<g><path style="opacity:1" fill="#d75b00" d="M 477.5,251.5 C 482.833,256.167 487.833,261.167 492.5,266.5C 417.368,341.132 342.368,415.965 267.5,491C 266.906,491.464 266.239,491.631 265.5,491.5C 260.5,487.167 255.833,482.5 251.5,477.5C 327.167,402.5 402.5,327.167 477.5,251.5 Z"/></g>
<g><path style="opacity:1" fill="#dd5e00" d="M 492.5,266.5 C 497.5,270.833 502.167,275.5 506.5,280.5C 431.5,356.167 356.167,431.5 280.5,506.5C 275.167,501.833 270.167,496.833 265.5,491.5C 266.239,491.631 266.906,491.464 267.5,491C 342.368,415.965 417.368,341.132 492.5,266.5 Z"/></g>
<g><path style="opacity:1" fill="#e36100" d="M 506.5,280.5 C 508.167,281.833 509.833,283.167 511.5,284.5C 511.5,293.167 511.5,301.833 511.5,310.5C 444.167,377.167 377.167,444.167 310.5,511.5C 301.833,511.5 293.167,511.5 284.5,511.5C 283.167,509.833 281.833,508.167 280.5,506.5C 356.167,431.5 431.5,356.167 506.5,280.5 Z"/></g>
<g><path style="opacity:1" fill="#b24e04" d="M 323.5,280.5 C 315.343,281.329 307.01,281.829 298.5,282C 279.5,301 260.5,320 241.5,339C 242.737,339.232 243.737,339.732 244.5,340.5C 242.738,340.643 241.071,340.309 239.5,339.5C 238.5,319.845 238.167,300.178 238.5,280.5C 266.833,280.5 295.167,280.5 323.5,280.5 Z"/></g>
<g><path style="opacity:1" fill="#ea6400" d="M 511.5,310.5 C 511.5,320.167 511.5,329.833 511.5,339.5C 453.833,396.5 396.5,453.833 339.5,511.5C 329.833,511.5 320.167,511.5 310.5,511.5C 377.167,444.167 444.167,377.167 511.5,310.5 Z"/></g>
<g><path style="opacity:1" fill="#f06600" d="M 511.5,339.5 C 511.5,349.167 511.5,358.833 511.5,368.5C 463.5,415.833 415.833,463.5 368.5,511.5C 358.833,511.5 349.167,511.5 339.5,511.5C 396.5,453.833 453.833,396.5 511.5,339.5 Z"/></g>
<g><path style="opacity:0.995" fill="#f66900" d="M 511.5,368.5 C 511.5,371.833 511.5,375.167 511.5,378.5C 509.986,386.736 508.32,395.069 506.5,403.5C 471.917,436.582 437.75,470.248 404,504.5C 403.536,505.094 403.369,505.761 403.5,506.5C 395.107,508.506 386.774,510.173 378.5,511.5C 375.167,511.5 371.833,511.5 368.5,511.5C 415.833,463.5 463.5,415.833 511.5,368.5 Z"/></g>
<g><path style="opacity:1" fill="#b9530a" d="M 153.5,379.5 C 190.5,379.5 227.5,379.5 264.5,379.5C 252.674,380.331 240.674,380.831 228.5,381C 216.298,393.369 203.965,405.535 191.5,417.5C 178.5,405.167 165.833,392.5 153.5,379.5 Z"/></g>
<g><path style="opacity:0.97" fill="#fb6b00" d="M 506.5,403.5 C 489.833,455.5 455.5,489.833 403.5,506.5C 403.369,505.761 403.536,505.094 404,504.5C 437.75,470.248 471.917,436.582 506.5,403.5 Z"/></g>
</svg>
